<svg xmlns="http://www.w3.org/2000/svg" viewBox="0 0 64 64">
  <defs>
    <linearGradient id="bg" x1="0" y1="0" x2="0" y2="1">
      <stop offset="0%" stop-color="#F6F7F4" />
      <stop offset="100%" stop-color="#E7ECEF" />
    </linearGradient>
    <linearGradient id="farRange" x1="0" y1="0" x2="0" y2="1">
      <stop offset="0%" stop-color="#3E5F78" stop-opacity="0.55" />
      <stop offset="100%" stop-color="#3E5F78" stop-opacity="0.18" />
    </linearGradient>
  </defs>

  <rect width="64" height="64" rx="14" ry="14" fill="url(#bg)" />

  <path
    d="M2 44 L14 32 L22 38 L32 26 L42 36 L52 28 L62 38 L62 50 L2 50 Z"
    fill="url(#farRange)"
  />

  <path
    d="M2 50 L16 36 L26 44 L36 30 L44 38 L54 32 L62 42 L62 56 L2 56 Z"
    fill="#1E2328"
  />

  <g stroke="#1E7FBF" stroke-width="1.4" stroke-linecap="round" opacity="0.55">
    <line x1="14" y1="10" x2="11" y2="18" />
    <line x1="26" y1="8"  x2="23" y2="16" />
    <line x1="40" y1="12" x2="37" y2="20" />
    <line x1="52" y1="9"  x2="49" y2="17" />
  </g>

  <circle cx="50" cy="22" r="2.8" fill="#1E7FBF" />
  <circle cx="50" cy="22" r="2.8" fill="#FFFFFF" opacity="0.25" />
</svg>
